(I'm not fragment, this is kind of a reseed of a dead torrent which was segmented in many rars)

The best movie by Christian Petzold.

Can't reveal anything interesting about the plot without spoiling it.

There's a clever way there to make us explore many aspects of the life of a woman such as Yella, to drive us into many conflicting perspective, yet all interessant.

Some snapshots :
 
http://pic.phyrefile.com/d/da/davdesj/2011/05/24/Yella_sourit.jpg
 
http://pic.phyrefile.com/d/da/davdesj/2011/05/24/Yella_plage.jpg
 
http://pic.phyrefile.com/d/da/davdesj/2011/05/24/Yella_dette.jpg
 
http://pic.phyrefile.com/d/da/davdesj/2011/05/24/Yella_affaires.jpg

Media Info :

Format                           : AVI
Format/Info                      : Audio Video Interleave
File size                        : 701 MiB
Duration                         : 1h 24mn
Overall bit rate                 : 1 154 Kbps
Writing application              : VirtualDubMod 1.5.10.2 (build 2540/release)
Writing library                  : VirtualDubMod build 2540/release

Video
ID                               : 0
Format                           : MPEG-4 Visual
Format profile                   : Advanced Simple@L5
Format settings, BVOP            : 2
Format settings, QPel            : No
Format settings, GMC             : No warppoints
Format settings, Matrix          : Default (H.263)
Muxing mode                      : Packed bitstream
Codec ID                         : XVID
Codec ID/Hint                    : XviD
Duration                         : 1h 24mn
Bit rate                         : 991 Kbps
Width                            : 592 pixels
Height                           : 320 pixels
Display aspect ratio             : 1.850
Frame rate                       : 25.000 fps
Color space                      : YUV
Chroma subsampling               : 4:2:0
Bit depth                        : 8 bits
Scan type                        : Progressive
Compression mode                 : Lossy
Bits/(Pixel*Frame)               : 0.209
Stream size                      : 602 MiB (86%)
Writing library                  : XviD 1.1.2 (UTC 2006-11-01)

Audio
ID                               : 1
Format                           : MPEG Audio
Format version                   : Version 1
Format profile                   : Layer 3
Mode                             : Joint stereo
Mode extension                   : MS Stereo
Codec ID                         : 55
Codec ID/Hint                    : MP3
Duration                         : 1h 24mn
Bit rate mode                    : Variable
Bit rate                         : 151 Kbps
Channel(s)                       : 2 channels
Sampling rate                    : 48.0 KHz
Compression mode                 : Lossy
Stream size                      : 91.5 MiB (13%)
Alignment                        : Aligned on interleaves
Interleave, duration             : 24 ms (0.60 video frame)
Interleave, preload duration     : 331 ms

